<?xml version="1.0" standalone="no"?>
<!DOCTYPE svg PUBLIC "-//W3C//DTD SVG 1.1//EN" "http://www.w3.org/Graphics/SVG/1.1/DTD/svg11.dtd" >
<svg xmlns="http://www.w3.org/2000/svg">
<metadata></metadata>
<defs>
<font id="plumbcondensedregular" horiz-adv-x="741" >
<font-face units-per-em="2048" ascent="1585" descent="-463" />
<missing-glyph horiz-adv-x="354" />
<glyph horiz-adv-x="2048" />
<glyph horiz-adv-x="2048" />
<glyph unicode="&#xd;" horiz-adv-x="681" />
<glyph unicode=" "  horiz-adv-x="354" />
<glyph unicode="&#x09;" horiz-adv-x="354" />
<glyph unicode="&#xa0;" horiz-adv-x="354" />
<glyph unicode="!" horiz-adv-x="462" d="M336 1458l-23 -1055h-118l-23 1055h164zM360 96q0 -45 -30.5 -76.5t-75.5 -31.5q-43 0 -75 30.5t-32 75.5q0 43 32 75t75 32q45 0 75.5 -31t30.5 -74z" />
<glyph unicode="&#x22;" horiz-adv-x="634" d="M528 1104h-133v354h133v-354zM240 1104h-131v354h131v-354z" />
<glyph unicode="#" horiz-adv-x="888" d="M825 889h-145l-31 -295h131v-129h-145l-51 -465h-123l51 465h-190l-52 -465h-123l52 465h-136v129h150l33 295h-140v129h154l47 440h123l-49 -440h192l48 440h122l-49 -440h131v-129zM559 889h-192l-31 -295h190z" />
<glyph unicode="$" horiz-adv-x="819" d="M750 391q0 -360 -277 -399v-225h-121v223q-135 12 -209.5 100t-81.5 244h146q8 -104 47 -152.5t113 -54.5v565l-13 4q-82 27 -124 53.5t-76 71.5q-70 88 -70 279q0 332 268 366v185h121v-183q121 -14 186.5 -91t75.5 -236h-147q-8 172 -129 192v-510l10 -4 q66 -27 90.5 -38t55 -30.5t53.5 -43.5q82 -97 82 -316zM367 856v477q-137 -20 -138 -229q0 -131 41 -182q31 -41 97 -66zM600 385q0 150 -47 209q-29 37 -94 65v-530q74 16 107.5 75.5t33.5 180.5z" />
<glyph unicode="%" horiz-adv-x="1165" d="M485 956q0 -125 -54 -189.5t-154.5 -64.5t-153.5 64.5t-53 189.5v261q0 125 54 190.5t152 65.5q100 0 154.5 -66t54.5 -190v-261zM877 1458l-476 -1458h-114l473 1458h117zM1096 242q0 -125 -54.5 -190.5t-152.5 -65.5q-100 0 -154.5 65.5t-54.5 190.5v258 q0 125 54 190.5t154.5 65.5t154 -64.5t53.5 -191.5v-258zM375 958v256q0 80 -22.5 116t-76.5 36q-51 0 -73.5 -36t-22.5 -116v-256q0 -80 22.5 -114.5t73.5 -34.5q53 0 76 34.5t23 114.5zM983 242v258q0 80 -21.5 114.5t-72.5 34.5q-53 0 -75.5 -34.5t-22.5 -114.5v-258 q0 -80 22.5 -115t75.5 -35q94 0 94 150z" />
<glyph unicode="&#x26;" horiz-adv-x="1038" d="M932 0h-158l-51 92q-115 -104 -285 -104q-164 0 -263 107.5t-99 299.5q0 78 18.5 142.5t60.5 118t73.5 84t88.5 77.5l-16 29q-39 70 -57.5 107.5t-36 99t-17.5 125.5q0 135 74 213.5t201 78.5q121 0 194.5 -76.5t73.5 -211.5q0 -160 -172 -312l-76 -65l248 -447 q43 141 43 361h135q-4 -326 -98 -504zM598 1180q0 164 -135 163q-133 0 -133 -161q0 -102 88 -256l8 -15l59 54q113 102 113 215zM657 211l-278 498q-51 -43 -80 -75t-55.5 -94.5t-26.5 -136.5q0 -131 59.5 -206.5t167.5 -75.5q141 0 213 90z" />
<glyph unicode="'" horiz-adv-x="348" d="M240 1104h-131v354h131v-354z" />
<glyph unicode="(" horiz-adv-x="538" d="M440 -86l-96 -102q-115 109 -147 172q-39 74 -39 211v1069q0 137 39 208.5t147 174.5l96 -103q-84 -76 -112 -131q-27 -53 -27 -162v-1044q0 -113 27 -164q28 -53 112 -129z" />
<glyph unicode=")" horiz-adv-x="538" d="M381 195q0 -137 -39 -211q-35 -70 -147 -172l-97 102q84 76 113 129q27 45 27 164v1044q0 109 -27 162q-29 55 -113 131l97 103q109 -102 147.5 -174t38.5 -209v-1069z" />
<glyph unicode="*" horiz-adv-x="733" d="M657 1010l-67 -99l-176 131l4 -63q2 -63 4 -127l4 -64h-119l12 254l-172 -131l-69 99l207 118l-207 117l69 98l172 -129l-12 252h119q-10 -252 -10 -254l174 131l67 -98l-208 -117z" />
<glyph unicode="+" horiz-adv-x="735" d="M670 483h-236v-262h-135v262h-238v129h238v260h135v-260h236v-129z" />
<glyph unicode="," horiz-adv-x="442" d="M348 176l-151 -397h-121l98 397h174z" />
<glyph unicode="-" horiz-adv-x="557" d="M461 487h-365v129h365v-129z" />
<glyph unicode="." horiz-adv-x="442" d="M326 96q0 -45 -31 -76.5t-76 -31.5q-43 0 -74.5 30.5t-31.5 75.5q0 43 31.5 75t74.5 32t75 -31t32 -74z" />
<glyph unicode="/" horiz-adv-x="534" d="M541 1610l-410 -1762h-135l410 1762h135z" />
<glyph unicode="0" d="M678 342q0 -176 -82 -265t-215 -89q-135 0 -216 89t-81 265v774q0 176 81 265t216 89q133 0 215 -89t82 -265v-774zM537 350v758q0 121 -37 177t-119 56q-84 0 -120 -56t-36 -177v-758q0 -121 36 -177t120 -56q82 0 119 56t37 177z" />
<glyph unicode="1" d="M494 0h-142v1278l-190 -217v180l190 217h142v-1458z" />
<glyph unicode="2" d="M664 1118q0 -168 -105 -362l-334 -625h426v-131h-583v131l376 698q76 139 76 289q0 119 -31.5 171t-115.5 52q-82 0 -124 -58t-42 -206h-139q0 393 305 393q145 0 218 -85t73 -267z" />
<glyph unicode="3" d="M676 348q0 -360 -311 -360q-315 0 -316 364v31h141v-18q0 -131 42 -189.5t132.5 -58.5t130.5 57t40 191v77q0 125 -45.5 182.5t-149.5 57.5h-33v129h33q92 0 134 54.5t42 172.5v74q0 129 -33.5 180t-120 51t-123 -52t-36.5 -179v-29h-142v35q0 354 301 355 q295 0 295 -347v-98q0 -219 -159 -276q178 -47 178 -297v-107z" />
<glyph unicode="4" d="M698 231h-98v-231h-139v231h-410v129l367 1098h143l-366 -1098h266v398h139v-398h98v-129z" />
<glyph unicode="5" d="M678 358q0 -371 -293 -370q-156 0 -225.5 88t-73.5 268h141q4 -125 36 -176t122 -51t121 66.5t31 191.5v200q0 145 -30 203t-118 58q-135 0 -156 -146h-131v768h547v-131h-420v-448q55 84 183 84q150 0 208 -94.5t58 -276.5v-234z" />
<glyph unicode="6" d="M688 422q0 -233 -75.5 -333.5t-239.5 -100.5q-158 0 -236 99t-78 321q0 39 3.5 75.5t5.5 62t12 63.5t13 53.5t20.5 58.5t19.5 51t24.5 60.5t24.5 58.5l232 567h149l-268 -655q39 31 106 31q139 0 213 -95.5t74 -316.5zM547 414q0 166 -36 230.5t-138 64.5q-96 0 -134 -68 t-38 -227q0 -166 35.5 -231.5t136.5 -65.5q102 0 138 65.5t36 231.5z" />
<glyph unicode="7" d="M678 1327l-346 -1327h-142l347 1327h-332v-221h-139v352h612v-131z" />
<glyph unicode="8" d="M696 397q0 -225 -80.5 -317t-244.5 -92t-245 92t-81 317q0 279 148 361q-129 74 -130 327q0 205 77 295t231 90q152 0 229.5 -91t77.5 -294q0 -250 -131 -327q72 -41 110.5 -121t38.5 -240zM537 1079.5q0 143.5 -36 203.5t-130.5 60t-130 -60t-35.5 -203.5t37 -203 t129 -59.5t129 59.5t37 203zM555 401.5q0 161.5 -42 224t-142 62.5q-102 0 -143.5 -62.5t-41.5 -224t40 -224t144.5 -62.5t144.5 62.5t40 224z" />
<glyph unicode="9" d="M686 1051q0 -43 -3 -82t-10 -78t-13.5 -63.5t-20.5 -66.5t-21.5 -59.5t-28 -67.5t-26.5 -67l-229 -567h-152l269 655q-39 -31 -107 -30q-139 0 -213 95t-74 316q0 233 76 333.5t240 100.5q158 0 235.5 -99t77.5 -320zM545 1044q0 166 -36 231.5t-136 65.5 q-102 0 -137 -65.5t-35 -231.5q0 -168 34.5 -231t137.5 -63q96 0 134 67t38 227z" />
<glyph unicode=":" horiz-adv-x="442" d="M328 834q0 -45 -31 -77t-76 -32q-43 0 -74.5 30.5t-31.5 73.5q0 45 31.5 76t74.5 31t75 -30.5t32 -71.5zM328 96q0 -45 -31 -76.5t-76 -31.5q-43 0 -74.5 30.5t-31.5 75.5q0 43 31.5 75t74.5 32t75 -32t32 -73z" />
<glyph unicode=";" horiz-adv-x="442" d="M338 834q0 -45 -32 -77t-75 -32t-74.5 30.5t-31.5 73.5q0 45 31.5 76t74.5 31t75 -30.5t32 -71.5zM340 176l-152 -397h-120l98 397h174z" />
<glyph unicode="&#x3c;" d="M676 233l-615 246v152l615 246v-152l-445 -170l445 -170v-152z" />
<glyph unicode="=" d="M670 659h-596v134h596v-134zM670 311h-596v131h596v-131z" />
<glyph unicode="&#x3e;" d="M676 479l-615 -246v152l445 170l-445 170v152l615 -246v-152z" />
<glyph unicode="?" horiz-adv-x="698" d="M659 1124q0 -170 -73 -286l-140 -215q-27 -41 -26 -117v-105h-141v105q0 113 45 182l141 217q53 82 53 219q0 115 -34.5 164t-112.5 49q-82 0 -120 -54t-40 -187h-141q6 375 301 374q288 0 288 -346zM465 96q0 -45 -32 -76.5t-75 -31.5t-74.5 30.5t-31.5 75.5 q0 43 31.5 75t74.5 32t75 -32t32 -73z" />
<glyph unicode="@" horiz-adv-x="1007" d="M918 0h-138v74q-57 -86 -176 -86q-236 0 -235 325v349q0 324 235 323q113 0 176 -76v148q0 137 -46 205.5t-177 68.5h-104q-131 0 -177.5 -68.5t-46.5 -205.5v-750q0 -98 14.5 -140t65.5 -99l-100 -86q-70 70 -93.5 131t-23.5 190v752q0 406 348 405h129q348 0 349 -405 v-1055zM782 328v315q0 125 -33.5 172t-105.5 47q-70 0 -103.5 -47t-33.5 -172v-315q0 -125 28.5 -171t98.5 -46q72 0 110.5 48t38.5 169z" />
<glyph unicode="A" horiz-adv-x="856" d="M836 0h-150l-70 307h-378l-68 -307h-147l337 1458h132zM586 436l-33 150q-35 152 -70 301l-32 149l-27 146l-27 -146l-131 -600h320z" />
<glyph unicode="B" horiz-adv-x="917" d="M842 385q0 -188 -97.5 -286.5t-285.5 -98.5h-320v1458h310q193 0 284.5 -92t91.5 -279v-38q0 -113 -45 -193t-125 -106q82 -23 134.5 -110t52.5 -214v-41zM674 1067q0 139 -52.5 197.5t-185.5 58.5h-145v-510h151q135 0 183.5 61.5t48.5 192.5zM692 407.5 q0 135.5 -52 204t-194 68.5h-155v-545h155q139 0 192.5 68.5t53.5 204z" />
<glyph unicode="C" horiz-adv-x="866" d="M795 401q-8 -414 -342 -413q-350 0 -351 422v639q0 231 98.5 326t252.5 95q334 0 342 -399h-152q-4 135 -45 198.5t-145 63.5q-94 0 -146.5 -60.5t-52.5 -240.5v-604q0 -180 52 -241.5t147 -61.5q98 0 143 62.5t47 213.5h152z" />
<glyph unicode="D" horiz-adv-x="935" d="M834 418q0 -197 -96.5 -307.5t-278.5 -110.5h-320v1458h318q377 0 377 -420v-620zM684 436v584q0 172 -62.5 237.5t-181.5 65.5h-149v-1188h151q242 0 242 301z" />
<glyph unicode="E" horiz-adv-x="794" d="M739 0h-616v1458h612v-135h-461v-518h383v-135h-383v-535h465v-135z" />
<glyph unicode="F" horiz-adv-x="788" d="M735 1323h-461v-541h381v-135h-381v-647h-151v1458h612v-135z" />
<glyph unicode="G" horiz-adv-x="905" d="M807 416q0 -428 -352.5 -428t-352.5 422v639q0 231 98.5 326t252.5 95q332 0 344 -393h-154q-4 137 -49 196.5t-141 59.5q-94 0 -146.5 -60.5t-52.5 -240.5v-604q0 -180 52 -241.5t149 -61.5q98 0 150 62.5t52 244.5v197h-213v133h363v-346z" />
<glyph unicode="H" horiz-adv-x="985" d="M846 0h-152v668h-403v-668h-152v1458h152v-653h403v653h152v-1458z" />
<glyph unicode="I" horiz-adv-x="438" d="M295 0h-152v1458h152v-1458z" />
<glyph unicode="J" horiz-adv-x="772" d="M641 408q0 -420 -311 -420q-190 0 -295 170l121 82q76 -115 172 -115q88 0 124.5 67.5t36.5 237.5v1028h152v-1050z" />
<glyph unicode="K" horiz-adv-x="901" d="M885 0h-162l-299 715l-133 -240v-475h-152v1458h152v-737l399 737h154l-322 -584z" />
<glyph unicode="L" horiz-adv-x="786" d="M752 0h-613v1458h152v-1323h461v-135z" />
<glyph unicode="M" horiz-adv-x="1169" d="M1030 0h-143v909l6 170l-33 -123l-217 -720h-111l-223 720l-30 123l4 -170v-909h-144v1458h148l301 -1007l295 1007h147v-1458z" />
<glyph unicode="N" horiz-adv-x="1019" d="M879 0h-138l-424 1020l-41 117l7 -131v-1006h-144v1458h140l421 -1016l41 -123l-4 136v1003h142v-1458z" />
<glyph unicode="O" horiz-adv-x="907" d="M805 410q0 -422 -350 -422q-352 0 -353 422v639q0 422 353 421q350 0 350 -421v-639zM655 428v604q0 180 -52 240.5t-148.5 60.5t-148.5 -60.5t-52 -240.5v-604q0 -180 52 -241.5t148.5 -61.5t148.5 61.5t52 241.5z" />
<glyph unicode="P" horiz-adv-x="892" d="M829 999q0 -399 -362 -399h-176v-600h-152v1458h328q362 0 362 -399v-60zM680 1012v35q0 150 -50 213t-179 63h-160v-588h160q127 0 178 63.5t51 213.5z" />
<glyph unicode="Q" horiz-adv-x="909" d="M848 -4l-107 -96l-116 125q-72 -37 -170 -37q-352 0 -353 422v639q0 422 352.5 421.5t352.5 -421.5v-639q0 -188 -76 -293zM655 428v604q0 180 -52 240.5t-148.5 60.5t-148.5 -60.5t-52 -240.5v-604q0 -180 52 -241.5t149 -61.5q41 0 67 8l-127 135l103 97q8 -8 21 -22.5 t41 -44.5t46 -48l19 -21q30 68 30 199z" />
<glyph unicode="R" horiz-adv-x="915" d="M862 0h-160l-251 649h-162v-649h-150v1458h348q170 0 255 -99t85 -278v-49q0 -289 -227 -362zM674 1038v25q0 137 -50.5 198.5t-158.5 61.5h-176v-545h176q209 0 209 260z" />
<glyph unicode="S" horiz-adv-x="819" d="M750 391q0 -213 -89.5 -308t-263.5 -95q-158 0 -243.5 89t-92.5 257h148q8 -115 53 -161t137 -46q106 0 153.5 60.5t47.5 197.5q0 145 -47 209q-37 45 -123 76l-76 26q-82 29 -124 55.5t-76 69.5q-70 88 -70 279q0 371 330 370q150 0 229.5 -75.5t91.5 -253.5h-147 q-6 104 -46 150t-130 46q-94 0 -137.5 -55t-43.5 -178q0 -131 39 -180q33 -45 127 -78l72 -25q139 -47 199 -114q82 -97 82 -316z" />
<glyph unicode="T" horiz-adv-x="749" d="M719 1323h-270v-1323h-150v1323h-270v135h690v-135z" />
<glyph unicode="U" horiz-adv-x="956" d="M827 403q0 -416 -348 -415q-174 0 -262 99t-88 316v1055h150v-1044q0 -158 47 -223.5t153 -65.5q104 0 151.5 65.5t47.5 223.5v1044h149v-1055z" />
<glyph unicode="V" horiz-adv-x="837" d="M817 1458l-332 -1458h-127l-340 1458h154l221 -1003l31 -181l31 181l213 1003h149z" />
<glyph unicode="W" horiz-adv-x="1208" d="M1180 1458l-236 -1458h-135l-184 993l-27 172l-25 -172l-182 -993h-135l-240 1458h154l143 -958l23 -193l26 193l173 958h129l176 -958l26 -193l23 193l139 958h152z" />
<glyph unicode="X" horiz-adv-x="790" d="M784 0h-159l-199 498l-35 106l-35 -106l-194 -498h-156l309 756l-286 702h159l170 -432l39 -119l39 119l170 432h154l-287 -702z" />
<glyph unicode="Y" horiz-adv-x="782" d="M772 1458l-305 -872v-586h-152v586l-305 872h156l182 -549l43 -153l41 153l182 549h158z" />
<glyph unicode="Z" horiz-adv-x="761" d="M696 0h-630v139l471 1184h-453v135h612v-131l-475 -1192h475v-135z" />
<glyph unicode="[" horiz-adv-x="518" d="M457 -152h-307v1762h307v-129h-166v-1504h166v-129z" />
<glyph unicode="\" horiz-adv-x="536" d="M541 -152h-135l-410 1762h135z" />
<glyph unicode="]" horiz-adv-x="518" d="M367 -152h-308v129h166v1504h-166v129h308v-1762z" />
<glyph unicode="^" d="M664 846h-136l-159 448l-162 -448h-133l237 624h113z" />
<glyph unicode="_" horiz-adv-x="772" d="M772 -338h-772v105h772v-105z" />
<glyph unicode="`" horiz-adv-x="966" d="M555 1217h-109l-176 313h144z" />
<glyph unicode="a" horiz-adv-x="743" d="M639 0h-141v98q-57 -104 -185 -104q-129 0 -188 80q-57 78 -57 211q0 141 74.5 215.5t201.5 74.5h154v162q0 84 -31 117t-94 33q-129 0 -142 -146h-137q6 135 86 204t197 69q125 0 193.5 -64.5t68.5 -193.5v-756zM498 350v115h-140q-154 0 -153.5 -176t133.5 -176 q80 0 127 65q33 49 33 172z" />
<glyph unicode="b" horiz-adv-x="768" d="M690 326q0 -121 -39 -209q-59 -129 -211 -129q-135 0 -192 100v-88h-142v1458h142v-551q61 106 196 107q145 0 207 -133q39 -88 39 -201v-354zM549 340v322q0 123 -37 174t-111 51q-154 0 -153 -225v-322q0 -225 153 -225q74 0 111 51t37 174z" />
<glyph unicode="c" horiz-adv-x="694" d="M639 287q-4 -139 -75.5 -219t-205.5 -80q-127 0 -203.5 86t-76.5 260v334q0 174 76.5 260t203.5 86q270 0 279 -295h-139q-6 90 -37 129t-103 39q-68 0 -103.5 -51.5t-35.5 -173.5v-320q0 -125 36 -176t103 -51q70 0 103 42t37 130h141z" />
<glyph unicode="d" horiz-adv-x="768" d="M662 0h-142v88q-57 -100 -192 -100q-154 0 -211 129q-39 88 -39 209v354q0 113 39 201q57 133 207 133q135 0 196 -107v551h142v-1458zM522 340v322q0 225 -155 225q-72 0 -110 -51.5t-38 -173.5v-322q0 -123 38 -174t110 -51q155 0 155 225z" />
<glyph unicode="e" horiz-adv-x="727" d="M649 459h-432v-107q0 -133 38 -186t116 -53q70 0 102.5 35.5t34.5 119.5h137q-6 -133 -74.5 -206.5t-199.5 -73.5q-137 0 -215 87t-78 269v315q0 180 76.5 267.5t212.5 87.5q283 0 282 -346v-209zM510 571v95q0 125 -34 175t-109.5 50t-112.5 -51.5t-37 -182.5v-86h293z " />
<glyph unicode="f" horiz-adv-x="440" d="M414 895h-142v-895h-141v895h-96v111h96v231q0 106 53.5 163.5t151.5 57.5h78v-129h-54q-47 0 -67.5 -24.5t-20.5 -83.5v-215h142v-111z" />
<glyph unicode="g" horiz-adv-x="761" d="M662 -113q0 -190 -73 -271t-216 -81q-125 0 -199 67.5t-82 200.5h139q10 -143 142 -143q78 0 112.5 53.5t34.5 184.5v202q-55 -102 -192 -102q-152 0 -211 129q-39 90 -39 209v344q0 113 39 201q57 133 207 133q135 0 196 -107v99h142v-1119zM522 350v312q0 225 -155 225 q-72 0 -110 -51.5t-38 -173.5v-312q0 -225 148 -225q155 0 155 225z" />
<glyph unicode="h" horiz-adv-x="774" d="M670 0h-142v721q0 88 -29.5 125t-97.5 37q-150 0 -149 -162v-721h-141v1458h141v-549q55 104 190 105q115 0 171.5 -70t56.5 -188v-756z" />
<glyph unicode="i" horiz-adv-x="391" d="M293 1374q0 -41 -28.5 -70.5t-67.5 -29.5t-69 28.5t-30 67.5q0 41 29 69.5t68 28.5q41 0 69.5 -27.5t28.5 -66.5zM268 0h-145v1006h145v-1006z" />
<glyph unicode="j" horiz-adv-x="393" d="M299 1374q0 -41 -28.5 -70.5t-67.5 -29.5q-41 0 -70 28.5t-29 67.5q0 41 28 69.5t69 28.5q39 0 68.5 -27.5t29.5 -66.5zM276 -207q0 -115 -56 -179.5t-169 -64.5h-49v127h31q55 0 77.5 30t22.5 93v1207h143v-1213z" />
<glyph unicode="k" horiz-adv-x="743" d="M707 0h-150l-211 494l-12 -21q-12 -20 -44 -71.5t-42 -67.5v-334h-137v1458h137v-911l274 459h148l-228 -377z" />
<glyph unicode="l" horiz-adv-x="391" d="M266 0h-141v1458h141v-1458z" />
<glyph unicode="m" horiz-adv-x="1193" d="M1090 0h-142v721q0 88 -30.5 125t-98.5 37q-150 0 -149 -162v-721h-142v721q0 88 -30.5 125t-96.5 37q-150 0 -149 -162v-721h-141v1006h141v-97q59 104 190 105q141 0 193 -109q76 109 227 109q113 0 170.5 -70t57.5 -188v-756z" />
<glyph unicode="n" horiz-adv-x="774" d="M670 0h-142v721q0 88 -29.5 125t-97.5 37q-150 0 -149 -162v-721h-141v1006h141v-97q55 104 190 105q115 0 171.5 -70t56.5 -188v-756z" />
<glyph unicode="o" horiz-adv-x="735" d="M657 332q0 -174 -76.5 -259t-213.5 -85q-135 0 -212 85t-77 259v340q0 172 76.5 257t212 85t213 -85t77.5 -257v-340zM516 340v324q0 123 -37 173t-112 50q-74 0 -111 -50.5t-37 -172.5v-324q0 -125 37 -175t111 -50q76 0 112.5 50t36.5 175z" />
<glyph unicode="p" horiz-adv-x="772" d="M694 326q0 -121 -39 -209q-57 -129 -211 -129q-135 0 -192 100v-541h-141v1459h141v-99q61 106 197 107q150 0 206 -133q39 -88 39 -201v-354zM553 340v322q0 123 -38 174t-109 51q-156 0 -156 -225v-322q0 -225 156 -225q72 0 109.5 51t37.5 174z" />
<glyph unicode="q" horiz-adv-x="772" d="M662 -453h-142v541q-57 -100 -192 -100q-154 0 -211 129q-39 88 -39 209v354q0 113 39 201q57 133 207 133q135 0 196 -107v99h142v-1459zM522 340v322q0 225 -155 225q-72 0 -110 -51.5t-38 -173.5v-322q0 -123 38 -174t110 -51q155 0 155 225z" />
<glyph unicode="r" horiz-adv-x="540" d="M498 868h-11q-8 2 -24.5 3t-32.5 1q-178 0 -178 -184v-688h-141v1006h141v-107q57 111 209 111l37 -2v-140z" />
<glyph unicode="s" horiz-adv-x="673" d="M598 287q0 -299 -264 -299q-250 0 -266 274h137q6 -80 35.5 -114.5t93.5 -34.5q72 0 100.5 41t28.5 129q0 74 -18.5 104.5t-79.5 50.5l-91 29q-106 35 -149 94.5t-43 181.5q0 139 69.5 207t186.5 68q246 0 254 -252h-135q-4 74 -33 101.5t-88 27.5q-66 0 -92.5 -33 t-26.5 -112q0 -74 19.5 -105t76.5 -49l88 -29q106 -35 151.5 -90t45.5 -190z" />
<glyph unicode="t" horiz-adv-x="452" d="M414 0h-78q-98 0 -151.5 57.5t-53.5 163.5v674h-96v111h96v311h141v-311h142v-111h-142v-657q0 -59 20.5 -84t67.5 -25h54v-129z" />
<glyph unicode="u" horiz-adv-x="774" d="M664 0h-142v96q-55 -104 -190 -104q-115 0 -171.5 69.5t-56.5 190.5v754h142v-721q0 -86 29.5 -123t97.5 -37q150 0 149 162v719h142v-1006z" />
<glyph unicode="v" horiz-adv-x="643" d="M633 1006l-250 -1006h-123l-250 1006h146l141 -625l25 -156l24 156l143 625h144z" />
<glyph unicode="w" horiz-adv-x="1015" d="M1012 1006l-211 -1006h-125l-141 641l-25 133l-23 -133l-141 -641h-125l-211 1006h146l118 -639l19 -140l22 140l140 639h112l140 -639l22 -140l19 140l118 639h146z" />
<glyph unicode="x" horiz-adv-x="659" d="M629 0h-146l-127 311l-26 86l-25 -86l-131 -311h-143l225 514l-215 492h143l121 -289l25 -82l26 82l117 289h145l-217 -492z" />
<glyph unicode="y" horiz-adv-x="626" d="M633 1006l-305 -1233q-25 -98 -62 -140q-51 -66 -176 -65h-35v131h29q53 0 75.5 25.5t41.5 101.5l51 207l-242 973h146l141 -631l25 -139l24 139l143 631h144z" />
<glyph unicode="z" horiz-adv-x="628" d="M567 0h-504v125l349 749h-326v132h481v-125l-350 -750h350v-131z" />
<glyph unicode="{" horiz-adv-x="561" d="M498 -152h-68q-133 0 -186 76q-39 55 -39 189v395q0 80 -27 117q-33 39 -86 39h-35v131h35q53 0 86 39q27 37 27 114v398q0 133 39 188q53 76 186 76h68v-127h-49q-66 0 -89 -33q-14 -27 -14 -115v-407q0 -86 -27.5 -129t-91.5 -70q63 -27 91 -70t28 -131v-405 q0 -88 14 -115q23 -33 89 -33h49v-127z" />
<glyph unicode="|" horiz-adv-x="493" d="M317 -152h-135v1762h135v-1762z" />
<glyph unicode="}" horiz-adv-x="561" d="M504 664h-35q-53 0 -86 -39q-27 -37 -27 -117v-395q0 -133 -39 -189q-53 -76 -186 -76h-68v127h50q70 0 88 33q14 27 14 115v405q0 86 28.5 130t92.5 71q-63 27 -92 70t-29 129v407q0 88 -14 115q-18 33 -88 33h-50v127h68q133 0 186 -76q39 -55 39 -188v-398 q0 -78 27 -114q33 -39 86 -39h35v-131z" />
<glyph unicode="~" d="M719 588q-45 -76 -92 -114t-125 -38q-59 0 -146 58l-22.5 15t-23.5 15t-19 11.5t-23.5 9.5t-21.5 2q-39 0 -65.5 -20.5t-57.5 -69.5l-98 67q47 74 94 112t123 38q59 0 149 -58q6 -4 26.5 -17t29 -18.5t23.5 -10.5t30 -5q39 0 64.5 19.5t56.5 70.5z" />
<glyph unicode="&#xa3;" d="M715 1100h-142q0 53 -4 89t-19 76t-49 59t-87 19q-86 0 -120 -52t-34 -181v-328h256v-102h-256v-549h442v-131h-583v680h-107v102h107v342q0 348 295 349q141 0 221 -87.5t80 -267.5v-18z" />
<glyph unicode="&#xa9;" horiz-adv-x="1638" d="M1561 743q0 -317 -215.5 -536t-526.5 -219q-307 0 -524 217t-217 524t217 524t524 217q301 0 521.5 -216t220.5 -511zM1440 717q0 268 -180.5 455.5t-440.5 187.5q-256 0 -438 -185.5t-182 -445.5t182 -445.5t438 -185.5q252 0 436.5 184.5t184.5 434.5zM1098 420 q-76 -66 -131 -84q-57 -23 -136 -23q-170 0 -268 112t-98 304.5t98.5 305t267.5 112.5q66 0 132 -21q57 -20 135 -88l-76 -75q-55 47 -94 63t-97 16q-252 0 -251 -323q0 -145 65.5 -224t188.5 -79q55 0 94 16.5t94 63.5z" />
<glyph unicode="&#xab;" horiz-adv-x="903" d="M823 156l-393 393l393 391v-182l-213 -209l213 -211v-182zM446 156l-391 393l391 391v-182l-208 -209l208 -211v-182z" />
<glyph unicode="&#xad;" horiz-adv-x="557" d="M461 487h-365v129h365v-129z" />
<glyph unicode="&#xae;" horiz-adv-x="897" d="M834 1094q0 -164 -112 -278t-273 -114q-160 0 -273 113t-113 272.5t113 272.5t273 113q156 0 270.5 -112.5t114.5 -266.5zM774 1081q0 139 -94 236.5t-231 97.5q-133 0 -228.5 -96t-95.5 -232q0 -137 95 -233t228.5 -96t229.5 96t96 227zM610 877h-67l-97 172h-63v-172 h-59v421h145q55 0 93 -36.5t38 -92.5q0 -84 -90 -112zM541 1171.5q0 32.5 -22.5 53t-57.5 20.5h-78v-147h78q35 0 57.5 20.5t22.5 53z" />
<glyph unicode="&#xbb;" horiz-adv-x="903" d="M848 549l-391 -393v182l211 211l-211 209v182zM473 549l-391 -393v182l211 211l-211 209v182z" />
<glyph unicode="&#x401;" horiz-adv-x="794" d="M678 1653q0 -39 -26.5 -66.5t-63.5 -27.5q-39 0 -65.5 26.5t-26.5 65.5t26.5 65.5t63.5 26.5t64.5 -26.5t27.5 -63.5zM397 1653q0 -39 -27.5 -66.5t-64.5 -27.5q-39 0 -65.5 26.5t-26.5 65.5t26.5 65.5t63.5 26.5t65.5 -26.5t28.5 -63.5zM739 0h-616v1458h612v-137h-461 v-516h383v-137h-383v-531h465v-137z" />
<glyph unicode="&#x402;" horiz-adv-x="1034" d="M930 -4q0 -115 -61.5 -185.5t-174.5 -70.5h-47v135h29q102 0 102 127v500q0 150 -51 213t-176 63q-76 0 -162 -26v-752h-149v1321h-211v137h690v-137h-330v-440q88 33 191 32q170 0 260 -99t90 -296v-522z" />
<glyph unicode="&#x403;" horiz-adv-x="782" d="M606 1794l-198 -278h-111l156 278h153zM733 1321h-459v-1321h-151v1458h610v-137z" />
<glyph unicode="&#x404;" horiz-adv-x="866" d="M797 399q-8 -412 -344 -411q-350 0 -351 422v639q0 231 98.5 326t252.5 95q334 0 344 -397h-154q-4 133 -44 197.5t-146 64.5q-96 0 -148.5 -62.5t-52.5 -240.5v-227h332v-135h-332v-242q0 -180 53 -242.5t148 -62.5q98 0 144 63.5t48 212.5h152z" />
<glyph unicode="&#x405;" horiz-adv-x="819" d="M750 391q0 -213 -89.5 -308t-263.5 -95q-158 0 -243.5 89t-92.5 257h148q8 -113 54 -160t136 -47q106 0 153.5 60.5t47.5 197.5q0 145 -47 209q-33 41 -123 74l-76 26q-82 31 -124 56.5t-76 70.5q-70 88 -70 279q0 371 330 370q150 0 230.5 -75.5t90.5 -253.5h-149 q-4 104 -44 149t-130 45q-94 0 -137.5 -54t-43.5 -177q0 -131 39 -180q33 -45 127 -78l72 -25q139 -47 199 -114q82 -97 82 -316z" />
<glyph unicode="&#x406;" horiz-adv-x="438" d="M295 0h-152v1458h152v-1458z" />
<glyph unicode="&#x407;" horiz-adv-x="438" d="M453 1653q0 -39 -27 -66.5t-64 -27.5q-39 0 -65.5 26.5t-26.5 65.5t27 65.5t63.5 26.5t64.5 -26.5t28 -63.5zM172 1653q0 -39 -27.5 -66.5t-64.5 -27.5q-39 0 -65.5 26.5t-26.5 65.5t26.5 65.5t63.5 26.5t65.5 -26.5t28.5 -63.5zM295 0h-152v1458h152v-1458z" />
<glyph unicode="&#x408;" horiz-adv-x="772" d="M641 408q0 -420 -311 -420q-190 0 -295 170l121 82q76 -115 172 -115q88 0 124.5 67.5t36.5 237.5v1028h152v-1050z" />
<glyph unicode="&#x409;" horiz-adv-x="1458" d="M1397 399q0 -399 -363 -399h-327v1321h-304l-18 -807q-12 -514 -356 -514h-45v139h8q127 0 182 106.5t59 311.5l21 901h602v-622h178q362 0 363 -400v-37zM1245 414v10q0 150 -51 213t-176 63h-162v-563h162q127 0 177 63.5t50 213.5z" />
<glyph unicode="&#x40a;" horiz-adv-x="1445" d="M1384 399q0 -399 -362 -399h-328v698h-403v-698h-152v1458h152v-622h403v622h152v-622h176q362 0 362 -400v-37zM1235 414v10q0 150 -51 213t-178 63h-160v-563h160q129 0 179 63.5t50 213.5z" />
<glyph unicode="&#x40b;" horiz-adv-x="1034" d="M930 0h-152v502q0 150 -51 213t-176 63q-76 0 -162 -26v-752h-149v1321h-211v137h690v-137h-330v-440q88 33 191 32q170 0 260 -99t90 -296v-518z" />
<glyph unicode="&#x40c;" horiz-adv-x="901" d="M649 1794l-198 -278h-111l158 278h151zM885 0h-162l-299 713l-133 -238v-475h-152v1458h152v-733l399 733h154l-322 -584z" />
<glyph unicode="&#x40e;" horiz-adv-x="815" d="M668 1782q-12 -115 -84 -179.5t-184.5 -64.5t-182.5 62.5t-84 181.5h113q20 -137 155 -137q72 0 110 38.5t44 98.5h113zM807 1458l-375 -1251q-29 -96 -70 -141q-59 -66 -184 -66h-80v137h76q55 0 80 24.5t47 96.5l47 158l-340 1042h152l215 -663l43 -166l233 829h156z " />
<glyph unicode="&#x40f;" horiz-adv-x="985" d="M846 0h-285v-330h-139v330h-283v1458h152v-1321h403v1321h152v-1458z" />
<glyph unicode="&#x410;" horiz-adv-x="856" d="M836 0h-150l-70 307h-378l-68 -307h-147l337 1458h132zM586 436l-33 150q-35 152 -70 301l-32 149l-27 146l-27 -146l-131 -600h320z" />
<glyph unicode="&#x411;" horiz-adv-x="917" d="M842 399q0 -399 -363 -399h-340v1458h635v-137h-483v-463h188q362 0 363 -399v-60zM690 414v30q0 150 -51 213.5t-176 63.5h-172v-584h172q127 0 177 63.5t50 213.5z" />
<glyph unicode="&#x412;" horiz-adv-x="917" d="M842 385q0 -188 -97.5 -286.5t-285.5 -98.5h-320v1458h310q193 0 284.5 -92t91.5 -279v-38q0 -113 -45 -193t-125 -106q82 -23 134.5 -110t52.5 -214v-41zM674 1067q0 139 -52.5 197.5t-185.5 58.5h-145v-510h151q135 0 183.5 61.5t48.5 192.5zM692 407.5 q0 135.5 -52 204t-194 68.5h-155v-545h155q139 0 192.5 68.5t53.5 204z" />
<glyph unicode="&#x413;" horiz-adv-x="782" d="M733 1321h-459v-1321h-151v1458h610v-137z" />
<glyph unicode="&#x414;" horiz-adv-x="1021" d="M995 -330h-139v330h-700v-330h-142v467h95q98 233 129.5 461.5t31.5 671.5v188h594v-1321h131v-467zM715 137v1184h-299v-199q0 -389 -30 -570t-120 -415h449z" />
<glyph unicode="&#x415;" horiz-adv-x="794" d="M739 0h-616v1458h612v-135h-461v-518h383v-135h-383v-535h465v-135z" />
<glyph unicode="&#x416;" horiz-adv-x="1323" d="M1309 0h-156l-291 705l-125 -230v-475h-149v475l-125 230l-293 -705h-156l355 862l-314 596h154l379 -719v719h149v-727l379 727h154l-316 -596z" />
<glyph unicode="&#x417;" horiz-adv-x="825" d="M750 385q0 -213 -90.5 -305t-262.5 -92q-158 0 -247 93t-89 253v43h148v-33q0 -219 190 -219q106 0 153.5 61.5t47.5 202.5v53q0 125 -45 182.5t-149 57.5h-91v129h91q182 0 182 227v64q0 125 -44 180t-138 55q-174 0 -175 -202v-37h-147v43q0 168 86 248.5t233 80.5 q332 0 332 -366v-76q0 -219 -166 -276q180 -47 181 -297v-70z" />
<glyph unicode="&#x418;" horiz-adv-x="1001" d="M860 0h-147v1001q0 6 4 74t4 72l-33 -88l-407 -1059h-142v1458h148v-997q0 -123 -6 -154l32 99l408 1052h139v-1458z" />
<glyph unicode="&#x419;" horiz-adv-x="1001" d="M786 1782q-12 -115 -83.5 -179.5t-184 -64.5t-181.5 62.5t-83 181.5h113q6 -59 45 -98t110.5 -39t109.5 38.5t44 98.5h110zM860 0h-147v1001q0 6 4 74t4 72l-33 -88l-407 -1059h-142v1458h148v-997q0 -123 -6 -154l32 99l408 1052h139v-1458z" />
<glyph unicode="&#x41a;" horiz-adv-x="901" d="M885 0h-162l-299 713l-133 -238v-475h-152v1458h152v-733l399 733h154l-322 -584z" />
<glyph unicode="&#x41b;" horiz-adv-x="997" d="M856 0h-149v1321h-301l-21 -807q-12 -514 -356 -514h-45v139h8q127 0 182 106.5t59 311.5l23 901h600v-1458z" />
<glyph unicode="&#x41c;" horiz-adv-x="1169" d="M1030 0h-143v909l4 170l-31 -125l-217 -718h-111l-223 718l-30 125l4 -170v-909h-144v1458h148l301 -1005l295 1005h147v-1458z" />
<glyph unicode="&#x41d;" horiz-adv-x="985" d="M846 0h-152v668h-403v-668h-152v1458h152v-653h403v653h152v-1458z" />
<glyph unicode="&#x41e;" horiz-adv-x="907" d="M805 410q0 -422 -350 -422q-352 0 -353 422v639q0 422 353 421q350 0 350 -421v-639zM655 428v604q0 178 -52 239.5t-148.5 61.5t-148.5 -61.5t-52 -239.5v-604q0 -180 52 -241.5t148.5 -61.5t148.5 61.5t52 241.5z" />
<glyph unicode="&#x41f;" horiz-adv-x="985" d="M846 0h-152v1321h-403v-1321h-152v1458h707v-1458z" />
<glyph unicode="&#x420;" horiz-adv-x="892" d="M831 999q0 -399 -364 -399h-176v-600h-152v1458h328q365 0 364 -399v-60zM680 1012v35q0 150 -50 213t-179 63h-160v-588h160q127 0 178 63.5t51 213.5z" />
<glyph unicode="&#x421;" horiz-adv-x="866" d="M795 401q-6 -414 -342 -413q-350 0 -351 422v639q0 231 98.5 326t252.5 95q334 0 342 -399h-154q-4 135 -44 198.5t-144 63.5q-94 0 -146.5 -61.5t-52.5 -239.5v-604q0 -180 52 -241.5t147 -61.5q98 0 143 62.5t47 213.5h152z" />
<glyph unicode="&#x422;" horiz-adv-x="749" d="M719 1321h-270v-1321h-150v1321h-270v137h690v-137z" />
<glyph unicode="&#x423;" horiz-adv-x="815" d="M807 1458l-375 -1251q-29 -96 -70 -141q-59 -66 -184 -66h-80v137h76q55 0 80 24.5t47 96.5l47 158l-340 1042h152l215 -663l43 -166l233 829h156z" />
<glyph unicode="&#x424;" horiz-adv-x="1169" d="M1081 559q0 -422 -356 -422h-63v-137h-152v137h-66q-354 0 -354 422v350q0 420 354 420h66v129h152v-129h63q356 0 356 -420v-350zM930 578v311q0 178 -54.5 239.5t-152.5 61.5h-64v-914h64q96 0 151.5 62t55.5 240zM512 276v914h-66q-96 0 -151 -61.5t-55 -239.5v-311 q0 -178 55 -240t154 -62h63z" />
<glyph unicode="&#x425;" horiz-adv-x="790" d="M784 0h-159l-199 498l-35 106l-35 -106l-194 -498h-156l309 756l-286 702h159l170 -432l39 -119l39 119l170 432h154l-287 -702z" />
<glyph unicode="&#x426;" horiz-adv-x="1007" d="M977 -330h-141v330h-697v1458h152v-1321h403v1321h152v-1321h131v-467z" />
<glyph unicode="&#x427;" horiz-adv-x="925" d="M784 0h-149v612q-76 -33 -189 -32q-172 0 -262 98t-90 295v485h152v-469q0 -150 51 -213t176 -63q76 0 162 26v719h149v-1458z" />
<glyph unicode="&#x428;" horiz-adv-x="1421" d="M1282 0h-1143v1458h152v-1321h344v1321h151v-1321h344v1321h152v-1458z" />
<glyph unicode="&#x429;" horiz-adv-x="1443" d="M1413 -330h-141v330h-1133v1458h152v-1321h344v1321h151v-1321h344v1321h152v-1321h131v-467z" />
<glyph unicode="&#x42a;" horiz-adv-x="1040" d="M979 399q0 -399 -363 -399h-327v1321h-260v137h411v-598h176q362 0 363 -399v-62zM829 414v35q0 150 -51 213t-178 63h-160v-588h160q129 0 179 63.5t50 213.5z" />
<glyph unicode="&#x42b;" horiz-adv-x="1273" d="M1135 0h-152v1458h152v-1458zM831 399q0 -399 -364 -399h-328v1458h152v-598h176q365 0 364 -399v-62zM680 414v35q0 150 -51 213t-178 63h-160v-588h160q129 0 179 63.5t50 213.5z" />
<glyph unicode="&#x42c;" horiz-adv-x="890" d="M831 399q0 -399 -364 -399h-328v1458h152v-598h176q365 0 364 -399v-62zM680 414v35q0 150 -51 213t-178 63h-160v-588h160q129 0 179 63.5t50 213.5z" />
<glyph unicode="&#x42d;" horiz-adv-x="866" d="M764 410q0 -422 -350 -422q-334 0 -342 411h149q4 -150 49 -213t144 -63q94 0 147 62.5t53 242.5v242h-329v135h329v227q0 178 -52 240.5t-148 62.5q-106 0 -146.5 -64.5t-44.5 -197.5h-151q8 397 342 397q154 0 252 -95t98 -326v-639z" />
<glyph unicode="&#x42e;" horiz-adv-x="1263" d="M1161 410q0 -422 -350 -422q-352 0 -352 422v258h-168v-668h-152v1458h152v-653h168v244q0 422 352 421q350 0 350 -421v-639zM1012 428v604q0 178 -52.5 239.5t-148.5 61.5t-148.5 -61.5t-52.5 -239.5v-604q0 -180 52.5 -241.5t148.5 -61.5t148.5 61.5t52.5 241.5z" />
<glyph unicode="&#x42f;" horiz-adv-x="919" d="M780 0h-151v612h-164l-252 -612h-160l262 633q-225 74 -225 366v80q0 178 85 278.5t257 100.5h348v-1458zM629 743v580h-178q-109 0 -159 -61.5t-50 -196.5v-64q0 -258 209 -258h178z" />
<glyph unicode="&#x430;" horiz-adv-x="743" d="M639 0h-141v98q-57 -104 -185 -104q-129 0 -188 80q-57 78 -57 211q0 141 74.5 215.5t201.5 74.5h154v162q0 84 -31 117t-94 33q-129 0 -142 -146h-137q6 135 86 205t197 70q125 0 193.5 -65.5t68.5 -194.5v-756zM498 350v115h-140q-154 0 -153.5 -176t133.5 -176 q80 0 127 65q33 49 33 172z" />
<glyph unicode="&#x431;" horiz-adv-x="735" d="M662 332q0 -174 -77 -259t-214 -85q-135 0 -212 85t-77 259v411q0 172 4 259.5t26.5 183.5t69.5 155q23 27 52.5 47.5t55 31t68.5 18.5t64.5 9t72 4t64.5 3l66 4v-125l-33 -2q-14 0 -64.5 -2t-78 -4t-68.5 -10t-70.5 -25.5t-52.5 -44.5q-66 -80 -65 -344h4q16 41 67 70.5 t123 29.5q125 0 200 -86t75 -258v-325zM520 340v313q0 123 -37 173.5t-112 50.5q-74 0 -111 -50.5t-37 -173.5v-313q0 -125 37 -175t111 -50q76 0 112.5 50t36.5 175z" />
<glyph unicode="&#x432;" horiz-adv-x="735" d="M662 268q0 -268 -265 -268h-288v1006h280q260 0 260 -256v-29q0 -162 -117 -205q61 -18 95.5 -76.5t34.5 -140.5v-31zM508 729q0 88 -33 123t-119 35h-106v-314h110q86 0 117 36t31 120zM520 287q0 86 -33.5 127t-121.5 41h-115v-336h115q88 0 121.5 41t33.5 127z" />
<glyph unicode="&#x433;" horiz-adv-x="602" d="M586 881h-334v-881h-143v1006h477v-125z" />
<glyph unicode="&#x434;" horiz-adv-x="796" d="M784 -274h-131v274h-516v-274h-131v399h86q63 152 83 302.5t20 449.5v129h479v-881h110v-399zM532 125v756h-198v-121q0 -252 -18.5 -371t-75.5 -264h292z" />
<glyph unicode="&#x435;" horiz-adv-x="727" d="M649 459h-432v-107q0 -133 38 -186t116 -53q70 0 102.5 35.5t34.5 119.5h137q-6 -133 -74.5 -206.5t-199.5 -73.5q-137 0 -215 87t-78 269v315q0 180 76.5 267.5t212.5 87.5q283 0 282 -346v-209zM510 571v95q0 125 -34 175t-109.5 50t-112.5 -51.5t-37 -182.5v-86h293z " />
<glyph unicode="&#x436;" horiz-adv-x="1075" d="M1049 0h-154l-213 457l-76 -131v-326h-137v326l-76 131l-213 -457h-151l270 592l-236 414h150l256 -453v453h137v-453l256 453h150l-236 -414z" />
<glyph unicode="&#x437;" horiz-adv-x="673" d="M594 281q0 -293 -266 -293q-162 0 -228 116q-37 63 -37 168h134q0 -72 31.5 -115.5t99.5 -43.5q72 0 100.5 42t28.5 130v28q0 76 -30 110t-99 34h-76v114h76q121 0 121 142v35q0 80 -27 112.5t-92 32.5q-72 0 -99 -43q-23 -33 -22 -102h-133q0 127 57 188q33 35 88 57.5 t107 22.5q131 0 193.5 -64.5t62.5 -206.5v-49q0 -133 -111 -176q121 -41 121 -198v-41z" />
<glyph unicode="&#x438;" horiz-adv-x="794" d="M686 0h-143v543q0 111 8 180l-307 -723h-135v1006h143v-555q0 -49 -6 -172l305 727h135v-1006z" />
<glyph unicode="&#x439;" horiz-adv-x="794" d="M649 1384q-14 -115 -81.5 -175t-170.5 -60q-104 0 -169.5 59.5t-80.5 175.5h113q18 -129 139 -129q59 0 95 37t43 92h112zM686 0h-143v543q0 111 8 180l-307 -723h-135v1006h143v-555q0 -49 -6 -172l305 727h135v-1006z" />
<glyph unicode="&#x43a;" horiz-adv-x="735" d="M711 0h-154l-225 453l-82 -136v-317h-141v1006h141v-457l276 457h148l-250 -418z" />
<glyph unicode="&#x43b;" horiz-adv-x="784" d="M674 0h-142v887h-223l-12 -529q-8 -358 -250 -358h-47v123h18q78 0 109 64.5t35 199.5l14 619h498v-1006z" />
<glyph unicode="&#x43c;" horiz-adv-x="968" d="M860 0h-143v524q0 4 3 78t3 78h-6l-182 -520h-99l-184 520h-6q6 -18 6 -156v-524h-143v1006h153l225 -666l218 666h155v-1006z" />
<glyph unicode="&#x43d;" horiz-adv-x="780" d="M670 0h-142v444h-276v-444h-143v1006h143v-435h276v435h142v-1006z" />
<glyph unicode="&#x43e;" horiz-adv-x="735" d="M657 332q0 -174 -76.5 -259t-213.5 -85q-135 0 -212 85t-77 259v340q0 172 76.5 258t212 86t213 -86t77.5 -258v-340zM516 340v324q0 123 -37 173t-112 50q-74 0 -111 -50.5t-37 -172.5v-324q0 -125 37 -175t111 -50q76 0 112.5 50t36.5 175z" />
<glyph unicode="&#x43f;" horiz-adv-x="780" d="M670 0h-142v881h-276v-881h-143v1006h561v-1006z" />
<glyph unicode="&#x440;" horiz-adv-x="772" d="M694 326q0 -121 -39 -209q-57 -129 -211 -129q-135 0 -192 100v-541h-143v1459h143v-99q61 106 197 107q150 0 206 -131q39 -90 39 -203v-354zM553 340v322q0 123 -38 174t-109 51q-156 0 -156 -225v-322q0 -225 156 -225q72 0 109.5 51t37.5 174z" />
<glyph unicode="&#x441;" horiz-adv-x="694" d="M639 287q-4 -139 -75.5 -219t-205.5 -80q-127 0 -203.5 86t-76.5 260v334q0 174 76.5 260t203.5 86q270 0 279 -295h-139q-6 90 -37 129t-103 39q-68 0 -103.5 -51.5t-35.5 -173.5v-320q0 -125 36 -176t103 -51q70 0 103 42t37 130h141z" />
<glyph unicode="&#x442;" horiz-adv-x="612" d="M596 881h-219v-881h-141v881h-220v125h580v-125z" />
<glyph unicode="&#x443;" horiz-adv-x="626" d="M633 1006l-305 -1233q-25 -98 -62 -140q-51 -66 -176 -65h-35v131h29q53 0 75.5 25.5t41.5 101.5l51 207l-242 973h146l141 -631l25 -139l24 139l143 631h144z" />
<glyph unicode="&#x444;" horiz-adv-x="1075" d="M1001 424q0 -401 -393 -434v-443h-141v441q-393 33 -393 448v146q0 401 393 434v442h141v-442q393 -31 393 -426v-166zM860 426v160q0 152 -63.5 223.5t-188.5 83.5v-776q121 18 186.5 98t65.5 211zM467 117v778q-125 -12 -188.5 -82t-63.5 -227v-160q0 -131 65.5 -211 t186.5 -98z" />
<glyph unicode="&#x445;" horiz-adv-x="659" d="M629 0h-146l-127 311l-26 86l-25 -86l-131 -311h-143l225 514l-215 492h143l121 -289l25 -82l26 82l117 289h145l-217 -492z" />
<glyph unicode="&#x446;" horiz-adv-x="802" d="M791 -274h-132v274h-550v1006h143v-881h276v881h142v-881h121v-399z" />
<glyph unicode="&#x447;" horiz-adv-x="706" d="M598 0h-143v408q-43 -29 -121 -29q-260 0 -260 283v344h141v-326q0 -96 32 -134t111 -38q72 0 97 20v478h143v-1006z" />
<glyph unicode="&#x448;" horiz-adv-x="1097" d="M987 0h-878v1006h143v-881h225v881h141v-881h228v881h141v-1006z" />
<glyph unicode="&#x449;" horiz-adv-x="1120" d="M1108 -274h-131v274h-868v1006h143v-881h225v881h141v-881h228v881h141v-881h121v-399z" />
<glyph unicode="&#x44a;" horiz-adv-x="819" d="M764 285q0 -285 -268 -285h-277v881h-203v125h344v-396h136q268 0 268 -284v-41zM621 293v26q0 94 -33 132t-111 38h-115v-364h115q80 0 112 37t32 131z" />
<glyph unicode="&#x44b;" horiz-adv-x="1003" d="M893 0h-141v1006h141v-1006zM653 285q0 -285 -268 -285h-276v1006h143v-396h133q268 0 268 -284v-41zM512 293v26q0 94 -34 132t-111 38h-115v-364h115q80 0 112.5 37t32.5 131z" />
<glyph unicode="&#x44c;" horiz-adv-x="712" d="M653 285q0 -285 -268 -285h-276v1006h143v-396h133q268 0 268 -284v-41zM512 293v26q0 94 -34 132t-111 38h-115v-364h115q80 0 112.5 37t32.5 131z" />
<glyph unicode="&#x44d;" horiz-adv-x="696" d="M618 336q0 -176 -77.5 -262t-204.5 -86q-131 0 -202 77.5t-77 204.5h142q6 -160 139 -159q68 0 103.5 51t35.5 176v115h-246v112h246v101q0 223 -139 223q-70 0 -101.5 -37t-35.5 -117h-142q6 141 78 211t199 70t204.5 -87t77.5 -261v-332z" />
<glyph unicode="&#x44e;" horiz-adv-x="1042" d="M965 332q0 -174 -77 -259t-212 -85q-137 0 -214 85t-77 259v112h-133v-444h-143v1006h143v-435h133v101q0 172 78 258t213 86t212 -86t77 -258v-340zM823 340v324q0 123 -36.5 173t-110.5 50q-76 0 -112 -49.5t-36 -173.5v-324q0 -125 36 -175t112 -50q74 0 110.5 50 t36.5 175z" />
<glyph unicode="&#x44f;" horiz-adv-x="745" d="M635 0h-143v408h-117l-172 -408h-150l180 428q-152 57 -151 256v64q0 119 65.5 188.5t188.5 69.5h299v-1006zM494 524v363h-138q-72 0 -103.5 -38t-31.5 -124v-43q0 -158 135 -158h138z" />
<glyph unicode="&#x451;" horiz-adv-x="727" d="M608 1268q0 -41 -26.5 -69t-65.5 -28t-65.5 28t-26.5 65q0 39 26.5 65.5t63.5 26.5t65.5 -26.5t28.5 -61.5zM326 1268q0 -41 -27 -69t-65.5 -28t-65.5 28t-27 65q0 39 27 65.5t65 26.5q37 0 65 -26.5t28 -61.5zM649 459h-432v-107q0 -133 38 -186t116 -53 q70 0 102.5 35.5t34.5 119.5h137q-6 -133 -74.5 -206.5t-199.5 -73.5q-137 0 -215 87t-78 269v315q0 180 76.5 267.5t212.5 87.5q283 0 282 -346v-209zM510 571v95q0 125 -34 175t-109.5 50t-112.5 -51.5t-37 -182.5v-86h293z" />
<glyph unicode="&#x452;" horiz-adv-x="774" d="M670 2q0 -115 -55.5 -180.5t-168.5 -65.5h-49v129h33q53 0 75.5 30t22.5 93v535q0 86 -29.5 122.5t-97.5 36.5q-150 0 -149 -161v-541h-143v987h-74v111h74v360h143v-360h315v-111h-315v-256q61 104 190 105q115 0 171.5 -70t56.5 -191v-573z" />
<glyph unicode="&#x453;" horiz-adv-x="602" d="M512 1401l-199 -279h-108l155 279h152zM586 881h-334v-881h-143v1006h477v-125z" />
<glyph unicode="&#x454;" horiz-adv-x="696" d="M639 270q-6 -127 -76.5 -204.5t-202.5 -77.5q-127 0 -204.5 86t-77.5 262v332q0 174 77.5 261t204.5 87t199 -69.5t78 -211.5h-141q-4 80 -36 117t-102 37q-139 0 -139 -223v-101h246v-112h-246v-115q0 -125 36 -176t103 -51q133 0 140 159h141z" />
<glyph unicode="&#x455;" horiz-adv-x="673" d="M598 287q0 -299 -264 -299q-250 0 -266 274h139q4 -80 33.5 -114.5t93.5 -34.5q72 0 100.5 41t28.5 129q0 74 -18.5 104.5t-79.5 50.5l-91 29q-106 35 -149 94.5t-43 181.5q0 137 69.5 205t186.5 68q115 0 183.5 -61.5t70.5 -190.5h-135q-4 72 -33 100.5t-86 28.5 q-68 0 -94.5 -34t-26.5 -114q0 -74 19.5 -105.5t76.5 -47.5l88 -27q106 -31 151.5 -89t45.5 -189z" />
<glyph unicode="&#x456;" horiz-adv-x="391" d="M293 1374q0 -41 -28.5 -70.5t-67.5 -29.5t-69 28.5t-30 67.5q0 41 29 69.5t68 28.5q41 0 69.5 -27.5t28.5 -66.5zM268 0h-145v1006h145v-1006z" />
<glyph unicode="&#x457;" horiz-adv-x="391" d="M430 1378q0 -41 -26.5 -68.5t-65.5 -27.5t-65.5 27.5t-26.5 64.5q0 39 26.5 65.5t63.5 26.5t65.5 -26.5t28.5 -61.5zM147 1378q0 -39 -26.5 -67.5t-63.5 -28.5q-39 0 -66.5 27.5t-27.5 64.5q0 39 27.5 65.5t64.5 26.5t64.5 -26.5t27.5 -61.5zM268 0h-145v1006h145v-1006z " />
<glyph unicode="&#x458;" horiz-adv-x="393" d="M299 1374q0 -41 -28.5 -70.5t-67.5 -29.5q-41 0 -70 28.5t-29 67.5q0 41 28 69.5t69 28.5q39 0 68.5 -27.5t29.5 -66.5zM276 -207q0 -115 -56 -179.5t-169 -64.5h-49v127h31q55 0 77.5 30t22.5 93v1207h143v-1213z" />
<glyph unicode="&#x459;" horiz-adv-x="1136" d="M1077 285q0 -285 -268 -285h-277v887h-223l-12 -529q-8 -358 -250 -358h-47v123h18q78 0 109 64.5t35 199.5l14 619h498v-414h135q268 0 268 -285v-22zM934 291v10q0 94 -33 131t-110 37h-117v-346h117q80 0 111.5 37t31.5 131z" />
<glyph unicode="&#x45a;" horiz-adv-x="1126" d="M1073 285q0 -285 -268 -285h-277v469h-276v-469h-143v1006h143v-414h276v414h142v-414h135q268 0 268 -285v-22zM930 291v10q0 94 -33 131t-111 37h-116v-346h116q80 0 112 37t32 131z" />
<glyph unicode="&#x45b;" horiz-adv-x="774" d="M670 0h-142v543q0 86 -29.5 122.5t-97.5 36.5q-150 0 -149 -161v-541h-143v987h-74v111h74v360h143v-360h315v-111h-315v-256q61 104 190 105q115 0 171.5 -70t56.5 -191v-575z" />
<glyph unicode="&#x45c;" horiz-adv-x="735" d="M555 1401l-199 -279h-110l157 279h152zM711 0h-154l-225 453l-82 -136v-317h-141v1006h141v-457l276 457h148l-250 -418z" />
<glyph unicode="&#x45e;" horiz-adv-x="626" d="M567 1384q-12 -115 -79.5 -175t-172.5 -60q-102 0 -167.5 58.5t-79.5 176.5h112q14 -129 139 -129q59 0 94.5 37t41.5 92h112zM635 1006l-307 -1233q-25 -96 -60 -140q-57 -66 -178 -65h-35v133h29q53 0 75.5 24.5t41.5 100.5l51 207l-242 973h146l141 -631l25 -139 l26 139l141 631h146z" />
<glyph unicode="&#x45f;" horiz-adv-x="780" d="M670 0h-213v-274h-131v274h-217v1006h143v-881h276v881h142v-1006z" />
<glyph unicode="&#x490;" horiz-adv-x="782" d="M733 1321h-459v-1321h-151v1458h469v330h141v-467z" />
<glyph unicode="&#x491;" horiz-adv-x="602" d="M586 881h-334v-881h-143v1006h344v274h133v-399z" />
<glyph unicode="&#x2000;" horiz-adv-x="897" />
<glyph unicode="&#x2001;" horiz-adv-x="1794" />
<glyph unicode="&#x2002;" horiz-adv-x="897" />
<glyph unicode="&#x2003;" horiz-adv-x="1794" />
<glyph unicode="&#x2004;" horiz-adv-x="598" />
<glyph unicode="&#x2005;" horiz-adv-x="448" />
<glyph unicode="&#x2006;" horiz-adv-x="299" />
<glyph unicode="&#x2007;" horiz-adv-x="299" />
<glyph unicode="&#x2008;" horiz-adv-x="224" />
<glyph unicode="&#x2009;" horiz-adv-x="358" />
<glyph unicode="&#x200a;" horiz-adv-x="99" />
<glyph unicode="&#x2010;" horiz-adv-x="557" d="M461 487h-365v129h365v-129z" />
<glyph unicode="&#x2011;" horiz-adv-x="557" d="M461 487h-365v129h365v-129z" />
<glyph unicode="&#x2012;" horiz-adv-x="557" d="M461 487h-365v129h365v-129z" />
<glyph unicode="&#x2013;" horiz-adv-x="1024" d="M1024 485h-1024v131h1024v-131z" />
<glyph unicode="&#x2014;" horiz-adv-x="2048" d="M2048 485h-2048v131h2048v-131z" />
<glyph unicode="&#x2018;" horiz-adv-x="434" d="M346 1458l-84 -354h-166l140 354h110z" />
<glyph unicode="&#x2019;" horiz-adv-x="434" d="M311 1458l-139 -354h-113l86 354h166z" />
<glyph unicode="&#x201a;" horiz-adv-x="434" d="M346 174l-137 -354h-113l84 354h166z" />
<glyph unicode="&#x201c;" horiz-adv-x="729" d="M635 1458l-84 -354h-168l139 354h113zM344 1458l-84 -354h-166l137 354h113z" />
<glyph unicode="&#x201d;" horiz-adv-x="729" d="M598 1458l-137 -354h-113l84 354h166zM309 1458l-139 -354h-113l86 354h166z" />
<glyph unicode="&#x201e;" horiz-adv-x="729" d="M635 174l-139 -354h-111l84 354h166zM344 174l-137 -354h-113l84 354h166z" />
<glyph unicode="&#x2022;" horiz-adv-x="606" d="M514 733q0 -86 -61.5 -148.5t-149.5 -62.5t-149.5 62.5t-61.5 148.5q0 88 61.5 149.5t149.5 61.5t149.5 -61.5t61.5 -149.5z" />
<glyph unicode="&#x2026;" horiz-adv-x="1251" d="M1137 96q0 -45 -32 -76.5t-75 -31.5q-45 0 -75.5 30.5t-30.5 75.5q0 43 30.5 75t75.5 32q43 0 75 -32t32 -73zM733 96q0 -45 -31.5 -76.5t-74.5 -31.5q-45 0 -76 30.5t-31 75.5q0 43 31 75t76 32q43 0 74.5 -32t31.5 -73zM326 96q0 -45 -31 -76.5t-76 -31.5 q-43 0 -74.5 30.5t-31.5 75.5q0 43 31.5 75t74.5 32t75 -31t32 -74z" />
<glyph unicode="&#x202f;" horiz-adv-x="358" />
<glyph unicode="&#x2039;" horiz-adv-x="528" d="M446 156l-391 393l391 391v-182l-208 -209l208 -211v-182z" />
<glyph unicode="&#x203a;" horiz-adv-x="528" d="M473 549l-391 -393v182l211 211l-211 209v182z" />
<glyph unicode="&#x205f;" horiz-adv-x="448" />
<glyph unicode="&#x2122;" horiz-adv-x="1705" d="M1602 584h-119v628l-207 -411h-117l-207 411v-628h-121v874h121l265 -528l266 528h119v-874zM678 1350h-244v-766h-119v766h-241v108h604v-108z" />
<glyph unicode="&#xe000;" horiz-adv-x="1003" d="M0 1004h1004v-1004h-1004v1004z" />
</font>
</defs>
</svg>
